<?xml version="1.0" standalone="no"?>
<!DOCTYPE svg PUBLIC "-//W3C//DTD SVG 20010904//EN"
 "http://www.w3.org/TR/2001/REC-SVG-20010904/DTD/svg10.dtd">
<svg version="1.0" xmlns="http://www.w3.org/2000/svg"
 width="225.000000pt" height="225.000000pt" viewBox="0 0 225.000000 225.000000"
 preserveAspectRatio="xMidYMid meet">

<g transform="translate(0.000000,225.000000) scale(0.100000,-0.100000)"
fill="#e0dee3" stroke="none">
<path d="M975 2239 c-408 -51 -777 -352 -912 -744 -140 -409 -37 -859 268
-1164 329 -328 824 -420 1250 -232 437 193 711 662 660 1130 -31 291 -139 513
-347 711 -247 236 -574 342 -919 299z m340 -158 c203 -42 371 -136 516 -289
168 -177 252 -377 266 -627 17 -336 -150 -662 -436 -853 -79 -52 -227 -121
-261 -122 -13 0 -15 29 -15 203 0 224 -4 259 -40 311 -13 20 -22 36 -19 36 3
0 40 7 82 16 251 51 372 205 373 474 0 112 -16 171 -65 245 -31 47 -34 57 -26
87 15 49 12 127 -5 186 -13 43 -20 52 -38 52 -37 0 -141 -39 -201 -75 l-57
-34 -75 15 c-97 18 -279 18 -367 -1 l-68 -14 -39 39 c-45 45 -115 70 -197 70
-53 0 -54 -1 -70 -37 -19 -45 -21 -164 -4 -207 10 -26 8 -34 -24 -81 -49 -71
-65 -130 -65 -244 0 -216 76 -355 235 -431 46 -22 185 -60 219 -60 3 0 -6 -16
-19 -36 -13 -20 -27 -51 -31 -70 -5 -26 -13 -35 -38 -43 -129 -41 -184 -17
-295 129 -12 17 -41 40 -63 51 -83 42 -120 -2 -49 -59 27 -22 52 -57 76 -107
60 -123 132 -162 285 -153 l68 4 6 -51 c3 -27 6 -90 6 -138 0 -102 13 -97
-121 -46 -233 89 -461 324 -549 566 -155 430 1 901 384 1154 210 139 477 191
721 140z"/>
</g>
</svg>
